<?xml version="1.0" encoding="UTF-8"?>
<svg id="Layer_1" xmlns="http://www.w3.org/2000/svg" version="1.1" viewBox="0 0 263.5 182.1">
  <!-- Generator: Adobe Illustrator 29.5.1, SVG Export Plug-In . SVG Version: 2.1.0 Build 141)  -->
  <defs>
    <style>
      .st0 {
        fill: #fff;
      }
    </style>
  </defs>
  <g>
    <path class="st0" d="M24.3,150.5c.2.3.4.8,1,.8s.8-.5,1-.8l14.4-28.3h9.9l-17.5,31.7c-1,1.7-2.8,3.8-7.8,3.8s-5.9-.4-7.8-3.8L0,122.2h9.9l14.4,28.3Z"/>
    <path class="st0" d="M99.6,125.5c5,3.5,5.5,9.7,5.5,14.2s-.6,10.7-5.5,14.2c-5.3,3.7-13.6,3.7-19.2,3.7s-13.9,0-19.2-3.7c-5.5-3.9-5.6-10.3-5.6-14.2s.3-10.7,5.6-14.2c5.3-3.8,13.4-3.7,19.2-3.7s13.9,0,19.2,3.7M67.8,149.5c2.8,2.7,7.5,2.9,12.4,2.9s9.5-.3,12.5-2.9c1.6-1.5,3-4.2,3-9.8s-1.4-8.5-3-9.8c-2.8-2.6-7.5-2.9-12.5-2.9s-9.6.3-12.4,2.9c-1.9,1.8-3,4.4-3,9.8s1.4,8.4,3,9.8"/>
    <path class="st0" d="M159.4,152.8c0,1.8-.9,2.9-1.8,3.5-1.3.8-3.3,1.1-4.7,1.1h-20.6c-5.5,0-9-1.4-11.2-2.8-5.9-3.6-6.3-9.6-6.3-14.6s.8-12.3,7.9-15.6c3-1.5,6.9-2.2,11.7-2.2h24v5.3h-21.5c-5.2,0-8.8,1.4-10.7,3.8-.9,1.1-2,3.5-2,8.5s1.2,7.6,1.9,8.6c2,3,5.4,3.7,9.2,3.7h11.8c1.7.4,3.6-1.2,3.2-2.4v-9.6h9.1v12.7Z"/>
    <path class="st0" d="M201,150.2c2.2-1.8,2.3-4.4,2.3-6.1v-21.9h9.1v22.8c0,3-.6,6.2-4.2,9-4.8,3.6-12.4,3.8-16.8,3.8s-12-.2-16.8-3.8c-3.7-2.8-4.2-6-4.2-9v-22.8h9.1v21.9c0,2,0,4.3,2.3,6.1,2.6,2,6.7,2.3,9.5,2.3s7-.3,9.6-2.3"/>
    <path class="st0" d="M232.1,157.3c-2.1,0-3.9,0-5.5-1.1-1.7-1.2-1.8-2.8-1.8-4.1v-24.9c0-1.4.6-2.8,1.7-3.7,1.6-1.3,3.9-1.4,5.8-1.4h31v5.3h-26.1c-.8,0-1.7,0-2.5.5-.8.6-.8,1.2-.8,1.7v7.1h28.6v5.3h-28.6v8.2c0,.7.2,1.1.7,1.4.6.4,1.7.5,3.1.5h25.8v5.3h-31.4Z"/>
  </g>
  <g>
    <g>
      <path class="st0" d="M147.9,83l-23,.7c-2.6,0-5.1-1.3-6.5-3.5l-11.9-19.2c-1-1.6-1.4-3.5-1.3-5.3-3.6,2.7-4.7,7.7-2.3,11.6l11.9,19.2c1.4,2.2,3.9,3.6,6.5,3.5l23.4-.7c4.4-.1,7.4-3.8,7.4-7.8-1.2.8-2.6,1.3-4.2,1.4Z"/>
      <path class="st0" d="M153.7,72.1l-23,.7c-2.6,0-5.1-1.3-6.5-3.5l-11.9-19.2c-1-1.6-1.4-3.5-1.3-5.3-3.6,2.7-4.7,7.7-2.3,11.6l11.9,19.2c1.4,2.2,3.9,3.6,6.5,3.5l23.4-.7c4.4-.1,7.4-3.8,7.4-7.8-1.2.8-2.6,1.3-4.2,1.4Z"/>
      <path class="st0" d="M159.3,61.1l-23,.7c-2.6,0-5.1-1.3-6.5-3.5l-11.9-19.2c-1-1.6-1.4-3.5-1.3-5.3-3.6,2.7-4.7,7.7-2.3,11.6l11.9,19.2c1.4,2.2,3.9,3.6,6.5,3.5l23.4-.7c4.4-.1,7.4-3.8,7.4-7.8-1.2.8-2.6,1.3-4.2,1.4Z"/>
    </g>
    <g>
      <path class="st0" d="M162.2,4.8l11.5,20c1.3,2.3,1.3,5.1,0,7.4l-11.3,19.6c-1,1.7-2.4,2.9-4,3.6,4.1,1.9,9,.4,11.3-3.5l11.3-19.6c1.3-2.3,1.3-5.1,0-7.4l-11.7-20.3c-2.2-3.8-6.9-4.7-10.3-2.8,1.3.6,2.4,1.7,3.2,3.1Z"/>
      <path class="st0" d="M149.8,4.8l11.5,20c1.3,2.3,1.3,5.1,0,7.4l-11.3,19.6c-1,1.7-2.4,2.9-4,3.6,4.1,1.9,9,.4,11.3-3.5l11.3-19.6c1.3-2.3,1.3-5.1,0-7.4l-11.7-20.3c-2.2-3.8-6.9-4.7-10.3-2.8,1.3.6,2.4,1.7,3.2,3.1Z"/>
      <path class="st0" d="M137.5,5.2l11.5,20c1.3,2.3,1.3,5.1,0,7.4l-11.3,19.6c-1,1.7-2.4,2.9-4,3.6,4.1,1.9,9,.4,11.3-3.5l11.3-19.6c1.3-2.3,1.3-5.1,0-7.4l-11.7-20.3c-2.2-3.8-6.9-4.7-10.3-2.8,1.3.6,2.4,1.7,3.2,3.1Z"/>
    </g>
    <g>
      <path class="st0" d="M86.2,30.3l11.4-20c1.3-2.3,3.7-3.7,6.4-3.7l22.6-.2c1.9,0,3.7.6,5.2,1.6C131.3,3.5,127.6,0,123,0l-22.6.2c-2.6,0-5.1,1.4-6.4,3.7l-11.6,20.4c-2.2,3.8-.6,8.3,2.8,10.3,0-1.4.2-2.9,1-4.3Z"/>
      <path class="st0" d="M92.5,41l11.4-20c1.3-2.3,3.7-3.7,6.4-3.7l22.6-.2c1.9,0,3.7.6,5.2,1.6-.4-4.5-4.2-8-8.8-8l-22.6.2c-2.6,0-5.1,1.4-6.4,3.7l-11.6,20.4c-2.2,3.8-.6,8.3,2.8,10.3,0-1.4.2-2.9,1-4.3Z"/>
      <path class="st0" d="M99,51.5l11.4-20c1.3-2.3,3.7-3.7,6.4-3.7l22.6-.2c1.9,0,3.7.6,5.2,1.6-.4-4.5-4.2-8-8.8-8l-22.6.2c-2.6,0-5.1,1.4-6.4,3.7l-11.6,20.4c-2.2,3.8-.6,8.3,2.8,10.3,0-1.4.2-2.9,1-4.3Z"/>
    </g>
    <text/>
  </g>
  <g>
    <path class="st0" d="M9.9,171.3c-3.1,0-4,1-4,4.4s1,4.4,4,4.4h1.9c.7,0,.9-.2.9-.9v-3.4h2.4v4.3c0,1.4-.8,1.9-1.8,1.9h-4.5c-4.3,0-5.3-2.7-5.3-6.3s1-6.3,5.3-6.3h6v1.9h-4.9Z"/>
    <path class="st0" d="M18.5,182c-1.1,0-1.8-.5-1.8-1.9v-10.7h2.4v9.8c0,.7.2.9.9.9h6.8v1.9h-8.2Z"/>
    <path class="st0" d="M39.5,175.7c0,5.1-1.8,6.4-6.5,6.4s-6.5-1.3-6.5-6.4,1.8-6.4,6.5-6.4,6.5,1.4,6.5,6.4ZM33,180.2c3.1,0,4-1,4-4.6s-.9-4.6-4-4.6-4,1-4,4.6.9,4.6,4,4.6Z"/>
    <path class="st0" d="M52.3,178.5c0,1.9-.5,3.5-2.9,3.5h-6.4c-1.1,0-1.8-.5-1.8-1.9v-8.8c0-1.4.8-1.9,1.8-1.9h6.4c1.8,0,2.7,1.2,2.7,3.5s-.4,2.5-1.8,2.7h0c1.5.2,2,1.4,2,3ZM43.5,174.7h4.8c1.1,0,1.4-.5,1.4-1.7s-.3-1.7-1.4-1.7h-3.9c-.7,0-.9.2-.9.9v2.5ZM43.5,179.2c0,.7.2.9.9.9h3.8c1.2,0,1.7-.5,1.7-1.7s-.5-1.8-1.5-1.8h-4.8v2.6Z"/>
    <path class="st0" d="M57.5,170.6c.4-1.1.9-1.4,2.1-1.4s1.6.4,2.1,1.4l4.8,11.3h-2.5l-1.3-3.2h-6.1l-1.3,3.2h-2.5l4.8-11.3ZM57.1,177.1h4.8l-2.1-5.1c0-.2-.2-.5-.4-.5s-.3.3-.4.5l-2.1,5.1Z"/>
    <path class="st0" d="M68.8,182c-1.1,0-1.8-.5-1.8-1.9v-10.7h2.4v9.8c0,.7.2.9.9.9h6.8v1.9h-8.2Z"/>
    <path class="st0" d="M91.6,180.6c-.4,1-.7,1.5-1.8,1.5s-1.4-.5-1.8-1.5l-3.2-8.4c0-.1-.2-.4-.3-.4-.2,0-.2.3-.2.4v9.8c0,0-2.3,0-2.3,0v-11.1c0-1.2.8-1.7,2-1.7s1.9.7,2.2,1.6l3.3,8.4c.1.3.2.5.3.5s.2-.2.3-.5l3.3-8.4c.3-.9.8-1.6,2.2-1.6s2,.5,2,1.7v11.1h-2.4v-9.8c0-.3,0-.4-.1-.4-.1,0-.3.3-.3.4l-3.2,8.4Z"/>
    <path class="st0" d="M109.7,182h-8.3c-1.1,0-1.8-.5-1.8-1.9v-8.8c0-1.4.8-1.9,1.8-1.9h8.2v1.9h-6.8c-.7,0-.9.2-.9.9v2.4h7.5v1.9h-7.5v2.7c0,.7.2.9.9.9h6.8v1.9Z"/>
    <path class="st0" d="M113,182c-1.1,0-1.8-.5-1.8-1.9v-8.8c0-1.4.8-1.9,1.8-1.9h4.9c4.3,0,5,3.2,5,6.3s-.7,6.3-4.6,6.3h-5.2ZM114.5,171.3c-.7,0-.9.2-.9.9v7c0,.7.2.9.9.9h2.6c2.9,0,3.3-1.9,3.3-4.4s-.5-4.4-3.3-4.4h-2.6Z"/>
    <path class="st0" d="M124.5,182v-12.6h2.4v12.6h-2.4Z"/>
    <path class="st0" d="M132.2,170.6c.4-1.1.9-1.4,2.1-1.4s1.6.4,2.1,1.4l4.8,11.3h-2.5l-1.3-3.2h-6.1l-1.3,3.2h-2.5l4.8-11.3ZM131.9,177.1h4.8l-2.1-5.1c0-.2-.2-.5-.4-.5s-.3.3-.4.5l-2.1,5.1Z"/>
    <path class="st0" d="M150.7,182c-4.3,0-5.3-2.7-5.3-6.3s1-6.3,5.3-6.3h5.1v1.9h-3.9c-3.1,0-4,1-4,4.4s1,4.4,4,4.4h4.1v1.9h-5.3Z"/>
    <path class="st0" d="M169.3,175.7c0,5.1-1.8,6.4-6.5,6.4s-6.5-1.3-6.5-6.4,1.8-6.4,6.5-6.4,6.5,1.4,6.5,6.4ZM162.8,180.2c3.1,0,4-1,4-4.6s-.9-4.6-4-4.6-4,1-4,4.6.9,4.6,4,4.6Z"/>
    <path class="st0" d="M183,180.3c0,1.3-.8,1.8-1.9,1.8s-1.5-.2-2-1.1l-5.3-8.4c-.2-.3-.2-.3-.3-.3,0,0-.3,0-.3.4v9.3h-2.3v-11c0-1.1.7-1.7,1.9-1.7s1.7.4,2,1l5.3,8.4c0,.1.1.3.3.3s.2-.2.2-.3v-9.3h2.3v11Z"/>
    <path class="st0" d="M184.6,180.1h7c1.1,0,1.2-.9,1.2-1.4s-.1-1.1-1.2-1.4l-5-1.6c-1.7-.5-2.1-1.6-2.1-3.3s.9-3,2.9-3h7.3v1.9h-6.6c-.6,0-1.1.4-1.1,1.3s0,1.1,1.1,1.4l4.6,1.5c1.8.6,2.6,1.4,2.6,3.3s-.8,3.2-2.7,3.2h-7.9v-1.9Z"/>
    <path class="st0" d="M205.2,177.4v-8h2.4v8c0,3.6-2.1,4.7-5.5,4.7s-5.5-1.1-5.5-4.7v-8h2.4v8c0,2,.9,2.8,3.1,2.8s3.1-.8,3.1-2.8Z"/>
    <path class="st0" d="M211.4,182c-1.1,0-1.8-.5-1.8-1.9v-10.7h2.4v9.8c0,.7.2.9.9.9h6.8v1.9h-8.2Z"/>
    <path class="st0" d="M222.2,182v-10.7h-4.9v-1.9h12.2v1.9h-4.9v10.7h-2.4Z"/>
    <path class="st0" d="M230.4,182v-12.6h2.4v12.6h-2.4Z"/>
    <path class="st0" d="M246.8,180.3c0,1.3-.8,1.8-1.9,1.8s-1.5-.2-2-1.1l-5.3-8.4c-.2-.3-.2-.3-.3-.3,0,0-.3,0-.3.4v9.3h-2.3v-11c0-1.1.7-1.7,1.9-1.7s1.7.4,2,1l5.3,8.4c0,.1.1.3.3.3s.2-.2.2-.3v-9.3h2.3v11Z"/>
    <path class="st0" d="M254.9,171.3c-3.1,0-4,1-4,4.4s1,4.4,4,4.4h1.9c.7,0,.9-.2.9-.9v-3.4h2.4v4.3c0,1.4-.8,1.9-1.8,1.9h-4.5c-4.3,0-5.3-2.7-5.3-6.3s1-6.3,5.3-6.3h6v1.9h-4.9Z"/>
  </g>
</svg>