<?xml version="1.0" encoding="UTF-8"?>
<svg id="Layer_1" xmlns="http://www.w3.org/2000/svg" version="1.1" viewBox="0 0 263.47 187.18">
  <!-- Generator: Adobe Illustrator 29.5.1, SVG Export Plug-In . SVG Version: 2.1.0 Build 141)  -->
  <defs>
    <style>
      .st0 {
        font-family: Magistral-Medium, Magistral;
        font-size: 18px;
        font-weight: 500;
        letter-spacing: -.01em;
      }

      .st0, .st1 {
        fill: #2e368d;
      }

      .st2 {
        fill: #262261;
      }
    </style>
  </defs>
  <g>
    <path class="st2" d="M24.28,150.52c.21.25.41.75,1.03.75s.83-.5,1.03-.75l14.42-28.34h9.87l-17.52,31.7c-.97,1.66-2.83,3.81-7.8,3.81-2.14,0-5.93-.35-7.8-3.81L0,122.18h9.87l14.42,28.34Z"/>
    <path class="st2" d="M99.55,125.49c5.04,3.51,5.52,9.68,5.52,14.24s-.55,10.73-5.52,14.24c-5.31,3.71-13.59,3.71-19.25,3.71s-13.94.05-19.25-3.71c-5.52-3.91-5.59-10.28-5.59-14.24,0-4.76.28-10.68,5.59-14.24,5.31-3.76,13.38-3.71,19.25-3.71s13.94-.05,19.25,3.71M67.82,149.51c2.76,2.66,7.45,2.91,12.42,2.91s9.52-.25,12.49-2.91c1.59-1.45,2.97-4.16,2.97-9.78,0-6.07-1.45-8.48-2.97-9.83-2.83-2.56-7.52-2.86-12.49-2.86s-9.59.3-12.42,2.86c-1.86,1.76-2.97,4.41-2.97,9.83,0,5.72,1.38,8.38,2.97,9.78"/>
    <path class="st2" d="M159.37,152.77c0,1.8-.9,2.91-1.79,3.46-1.31.75-3.31,1.05-4.69,1.05h-20.56c-5.45,0-9.04-1.4-11.25-2.76-5.86-3.61-6.35-9.63-6.35-14.59,0-5.72.76-12.29,7.86-15.6,3.04-1.45,6.9-2.16,11.66-2.16h24.01v5.27h-21.46c-5.24,0-8.83,1.35-10.69,3.81-.9,1.05-2,3.46-2,8.48s1.17,7.57,1.93,8.63c2,2.96,5.38,3.66,9.24,3.66h11.8c1.66.35,3.59-1.15,3.17-2.36v-9.58h9.11v12.69Z"/>
    <path class="st2" d="M200.97,150.17c2.21-1.76,2.28-4.36,2.28-6.12v-21.87h9.11v22.77c0,3.01-.55,6.22-4.21,8.98-4.76,3.61-12.42,3.76-16.76,3.76s-12-.15-16.76-3.76c-3.66-2.76-4.21-5.97-4.21-8.98v-22.77h9.11v21.87c0,1.96.07,4.31,2.35,6.12,2.55,2.01,6.69,2.26,9.52,2.26,2.62,0,7.04-.25,9.59-2.26"/>
    <path class="st2" d="M232.08,157.29c-2.14,0-3.93.05-5.52-1.1-1.66-1.15-1.79-2.76-1.79-4.11v-24.87c0-1.4.62-2.81,1.66-3.66,1.59-1.25,3.93-1.35,5.8-1.35h30.98v5.27h-26.08c-.83,0-1.72.05-2.48.5-.76.55-.76,1.15-.76,1.71v7.07h28.63v5.27h-28.63v8.22c0,.65.21,1.1.69,1.35.55.4,1.66.45,3.11.45h25.8v5.27h-31.39Z"/>
  </g>
  <g>
    <g>
      <path class="st2" d="M147.88,83.04l-23.04.69c-2.64.08-5.13-1.26-6.52-3.5l-11.89-19.19c-1.02-1.64-1.41-3.48-1.28-5.27-3.64,2.67-4.67,7.73-2.25,11.63l11.89,19.19c1.39,2.25,3.88,3.58,6.52,3.5l23.42-.71c4.4-.13,7.45-3.82,7.37-7.75-1.18.82-2.6,1.34-4.22,1.39Z"/>
      <path class="st1" d="M153.75,72.07l-23.04.69c-2.64.08-5.13-1.26-6.52-3.5l-11.89-19.19c-1.02-1.64-1.41-3.48-1.28-5.27-3.64,2.67-4.67,7.73-2.25,11.63l11.89,19.19c1.39,2.25,3.88,3.58,6.52,3.5l23.42-.71c4.4-.13,7.45-3.82,7.37-7.75-1.18.82-2.6,1.34-4.22,1.39Z"/>
      <path class="st2" d="M159.28,61.09l-23.04.69c-2.64.08-5.13-1.26-6.52-3.5l-11.89-19.19c-1.02-1.64-1.41-3.48-1.28-5.27-3.64,2.67-4.67,7.73-2.25,11.63l11.89,19.19c1.39,2.25,3.88,3.58,6.52,3.5l23.42-.71c4.4-.13,7.45-3.82,7.37-7.75-1.18.82-2.6,1.34-4.22,1.39Z"/>
    </g>
    <g>
      <path class="st2" d="M162.25,4.8l11.53,19.96c1.32,2.29,1.32,5.11,0,7.4l-11.26,19.56c-.96,1.67-2.4,2.89-4.03,3.62,4.08,1.94,9.02.45,11.31-3.53l11.26-19.56c1.32-2.29,1.32-5.11,0-7.4l-11.72-20.29c-2.2-3.81-6.89-4.75-10.32-2.82,1.28.65,2.42,1.66,3.22,3.05Z"/>
      <path class="st1" d="M149.8,4.84l11.53,19.96c1.32,2.29,1.32,5.11,0,7.4l-11.26,19.56c-.96,1.67-2.4,2.89-4.03,3.62,4.08,1.94,9.02.45,11.31-3.53l11.26-19.56c1.32-2.29,1.32-5.11,0-7.4l-11.72-20.29c-2.2-3.81-6.89-4.75-10.32-2.82,1.28.65,2.42,1.66,3.22,3.05Z"/>
      <path class="st2" d="M137.51,5.16l11.53,19.96c1.32,2.29,1.32,5.11,0,7.4l-11.26,19.56c-.96,1.67-2.4,2.89-4.03,3.62,4.08,1.94,9.02.45,11.31-3.53l11.26-19.56c1.32-2.29,1.32-5.11,0-7.4l-11.72-20.29c-2.2-3.81-6.89-4.75-10.32-2.82,1.28.65,2.42,1.66,3.22,3.05Z"/>
    </g>
    <g>
      <path class="st2" d="M86.22,30.3l11.39-20.04c1.31-2.3,3.74-3.73,6.38-3.75l22.57-.18c1.93-.02,3.71.6,5.16,1.65C131.34,3.48,127.55-.04,122.96,0l-22.57.18c-2.64.02-5.08,1.45-6.38,3.75l-11.57,20.37c-2.18,3.83-.61,8.35,2.79,10.33-.09-1.43.21-2.92,1-4.33Z"/>
      <path class="st1" d="M92.55,41.02l11.39-20.04c1.31-2.3,3.74-3.73,6.38-3.75l22.57-.18c1.93-.02,3.71.6,5.16,1.65-.39-4.5-4.18-8.01-8.77-7.97l-22.57.18c-2.64.02-5.08,1.45-6.38,3.75l-11.57,20.37c-2.18,3.83-.61,8.35,2.79,10.33-.09-1.43.21-2.92,1-4.33Z"/>
      <path class="st2" d="M99.04,51.45l11.39-20.04c1.31-2.3,3.74-3.73,6.38-3.75l22.57-.18c1.93-.02,3.71.6,5.16,1.65-.39-4.5-4.18-8.01-8.77-7.97l-22.57.18c-2.64.02-5.08,1.45-6.38,3.75l-11.57,20.37c-2.18,3.83-.61,8.35,2.79,10.33-.09-1.43.21-2.92,1-4.33Z"/>
    </g>
    <text/>
  </g>
  <text class="st0" transform="translate(2.71 181.97)"><tspan x="0" y="0">GLOBAL MEDIA CONSULTING</tspan></text>
</svg>